# Blender 4.1.1
# www.blender.org
mtllib TV.mtl
o 立方体
v 14.812044 -18.750000 16.250000
v 14.812040 3.750001 16.250000
v -14.812040 -18.750000 16.250000
v -14.812044 3.749999 16.250000
v 14.812044 -18.750000 13.750000
v 14.812040 3.750001 13.750000
v -14.812040 -18.750000 13.750000
v -14.812044 3.749999 13.750000
v 17.041708 -17.412203 16.250000
v 17.041706 2.412204 16.250000
v -17.041704 -17.412203 16.250000
v -17.041706 2.412201 16.250000
v 17.041706 -17.412203 13.750000
v 17.041704 2.412204 13.750000
v -17.041706 -17.412203 13.750000
v -17.041708 2.412201 13.750000
v 17.716408 -16.434883 16.250000
v 18.750000 -13.317133 16.250000
v 18.750000 -1.682864 16.250000
v 17.716400 1.434887 16.250000
v -18.750000 -13.317137 16.250000
v -17.716400 -16.434887 16.250000
v -17.716406 1.434884 16.250000
v -18.750000 -1.682867 16.250000
v 18.750000 -13.317133 13.750000
v 17.716400 -16.434883 13.750000
v 17.716404 1.434887 13.750000
v 18.750000 -1.682864 13.750000
v -17.716406 -16.434887 13.750000
v -18.750000 -13.317137 13.750000
v -18.750000 -1.682867 13.750000
v -17.716402 1.434884 13.750000
v -15.000000 -16.875000 13.750000
v 14.999998 1.875001 13.750000
v -15.000002 1.874999 13.750000
v 15.000000 -16.875000 13.750000
v 15.000002 -16.875000 16.250000
v -15.000000 1.874999 16.250000
v 15.000000 1.875001 16.250000
v -14.999998 -16.875000 16.250000
vn 1.0000 -0.0000 -0.0000
vn -0.0000 1.0000 -0.0000
vn 0.5145 0.8575 -0.0000
vn -0.5145 0.8575 -0.0000
vn -0.8229 0.5681 -0.0000
vn 0.8229 0.5681 -0.0000
vn -0.5145 -0.8575 -0.0000
vn -0.0000 -1.0000 -0.0000
vn -1.0000 -0.0000 -0.0000
vn -0.0000 -0.0000 -1.0000
vn -0.0000 -0.0000 1.0000
vn -0.8229 -0.5681 -0.0000
vn 0.5145 -0.8575 -0.0000
vn -0.9492 -0.3147 -0.0000
vn -0.9492 0.3147 -0.0000
vn 0.9492 -0.3147 -0.0000
vn 0.9492 0.3147 -0.0000
vn 0.8229 -0.5681 -0.0000
vt 0.564635 0.750000
vt 0.435365 1.000000
vt 0.435365 0.750000
vt 0.875000 0.526253
vt 0.625000 0.723747
vt 0.625000 0.526253
vt 0.625000 1.000000
vt 0.610136 0.750000
vt 0.625000 0.750000
vt 0.625000 0.500000
vt 0.610136 0.250000
vt 0.625000 0.250000
vt 0.599276 0.250000
vt 0.610136 0.500000
vt 0.599276 0.500000
vt 0.599276 0.750000
vt 0.610136 1.000000
vt 0.599276 1.000000
vt 0.125000 0.526253
vt 0.375000 0.511389
vt 0.375000 0.526253
vt 0.125000 0.723747
vt 0.564635 0.250000
vt 0.435365 0.500000
vt 0.435365 0.250000
vt 0.604167 0.725000
vt 0.604167 0.525000
vt 0.395833 0.525000
vt 0.395833 0.725000
vt 0.625000 0.223747
vt 0.604167 0.225000
vt 0.604167 0.025000
vt 0.375000 0.026253
vt 0.395833 0.025000
vt 0.395833 0.225000
vt 0.375000 0.506891
vt 0.125000 0.511389
vt 0.125000 0.506891
vt 0.375000 0.723747
vt 0.125000 0.738611
vt 0.375000 0.500000
vt 0.125000 0.500000
vt 0.564635 0.500000
vt 0.125000 0.750000
vt 0.375000 0.743109
vt 0.375000 0.750000
vt 0.564635 1.000000
vt 0.125000 0.743109
vt 0.375000 0.738611
vt 0.375000 0.458333
vt 0.625000 0.291667
vt 0.375000 0.291667
vt 0.375000 0.958333
vt 0.625000 0.791667
vt 0.375000 0.791667
vt 0.333333 0.500000
vt 0.166667 0.750000
vt 0.333333 0.750000
vt 0.833333 0.750000
vt 0.666667 0.500000
vt 0.666667 0.750000
vt 0.875000 0.723747
vt 0.389864 0.511389
vt 0.400724 0.506891
vt 0.599276 0.506891
vt 0.610136 0.511389
vt 0.610136 0.738611
vt 0.599276 0.743109
vt 0.400724 0.743109
vt 0.389864 0.738611
vt 0.389864 0.011389
vt 0.400724 0.006891
vt 0.435365 0.000000
vt 0.564635 0.000000
vt 0.599276 0.006891
vt 0.610136 0.011389
vt 0.625000 0.026253
vt 0.610136 0.238611
vt 0.599276 0.243109
vt 0.400724 0.243109
vt 0.389864 0.238611
vt 0.375000 0.223747
vt 0.625000 0.458333
vt 0.625000 0.958333
vt 0.166667 0.500000
vt 0.833333 0.500000
s 0
usemtl マテリアル
f 28/1/1 18/2/1 25/3/1
f 4/4/2 6/5/2 8/6/2
f 2/7/3 14/8/3 6/9/3
f 8/10/4 12/11/4 4/12/4
f 23/13/5 16/14/5 32/15/5
f 27/16/6 10/17/6 20/18/6
f 3/19/7 15/20/7 7/21/7
f 7/21/8 1/22/8 3/19/8
f 24/23/9 30/24/9 21/25/9
f 6/5/10 34/26/10 35/27/10
f 7/21/10 33/28/10 36/29/10
f 4/30/11 38/31/11 39/32/11
f 1/33/11 37/34/11 40/35/11
f 29/36/12 11/37/12 22/38/12
f 5/39/13 9/40/13 1/22/13
f 30/41/14 22/38/14 21/42/14
f 24/23/15 32/15/15 31/43/15
f 18/44/16 26/45/16 25/46/16
f 28/1/17 20/18/17 19/47/17
f 17/48/18 13/49/18 26/45/18
f 33/50/1 38/51/1 40/52/1
f 37/53/9 34/54/9 36/55/9
f 33/56/2 37/57/2 36/58/2
f 39/59/8 35/60/8 34/61/8
f 28/1/1 19/47/1 18/2/1
f 4/4/2 2/62/2 6/5/2
f 2/7/3 10/17/3 14/8/3
f 8/10/4 16/14/4 12/11/4
f 23/13/5 12/11/5 16/14/5
f 27/16/6 14/8/6 10/17/6
f 3/19/7 11/37/7 15/20/7
f 7/21/8 5/39/8 1/22/8
f 24/23/9 31/43/9 30/24/9
f 33/28/10 15/63/10 29/64/10
f 29/64/10 30/24/10 33/28/10
f 30/24/10 31/43/10 33/28/10
f 31/43/10 32/65/10 35/27/10
f 32/65/10 16/66/10 35/27/10
f 16/66/10 8/6/10 35/27/10
f 8/6/10 6/5/10 35/27/10
f 6/5/10 14/67/10 34/26/10
f 35/27/10 33/28/10 31/43/10
f 34/26/10 14/67/10 27/68/10
f 27/68/10 28/1/10 34/26/10
f 28/1/10 25/3/10 34/26/10
f 25/3/10 26/69/10 36/29/10
f 26/69/10 13/70/10 36/29/10
f 13/70/10 5/39/10 36/29/10
f 5/39/10 7/21/10 36/29/10
f 7/21/10 15/63/10 33/28/10
f 36/29/10 34/26/10 25/3/10
f 37/34/11 9/71/11 17/72/11
f 17/72/11 18/73/11 37/34/11
f 18/73/11 19/74/11 37/34/11
f 19/74/11 20/75/11 39/32/11
f 20/75/11 10/76/11 39/32/11
f 10/76/11 2/77/11 39/32/11
f 2/77/11 4/30/11 39/32/11
f 4/30/11 12/78/11 38/31/11
f 39/32/11 37/34/11 19/74/11
f 38/31/11 12/78/11 23/79/11
f 23/79/11 24/23/11 38/31/11
f 24/23/11 21/25/11 38/31/11
f 21/25/11 22/80/11 40/35/11
f 22/80/11 11/81/11 40/35/11
f 11/81/11 3/82/11 40/35/11
f 3/82/11 1/33/11 40/35/11
f 1/33/11 9/71/11 37/34/11
f 40/35/11 38/31/11 21/25/11
f 29/36/12 15/20/12 11/37/12
f 5/39/13 13/49/13 9/40/13
f 30/41/14 29/36/14 22/38/14
f 24/23/15 23/13/15 32/15/15
f 18/44/16 17/48/16 26/45/16
f 28/1/17 27/16/17 20/18/17
f 17/48/18 9/40/18 13/49/18
f 33/50/1 35/83/1 38/51/1
f 37/53/9 39/84/9 34/54/9
f 33/56/2 40/85/2 37/57/2
f 39/59/8 38/86/8 35/60/8
