# Blender 4.1.1
# www.blender.org
mtllib maru.mtl
o 円柱
v -0.925850 -0.000000 0.925851
v -0.925851 -0.000000 -0.925850
v -0.908060 -0.180624 0.925851
v -0.908060 -0.180624 -0.925850
v -0.855375 -0.354307 0.925851
v -0.855375 -0.354307 -0.925850
v -0.769817 -0.514375 0.925851
v -0.769817 -0.514375 -0.925850
v -0.654675 -0.654675 0.925851
v -0.654675 -0.654675 -0.925851
v -0.514375 -0.769817 0.925851
v -0.514375 -0.769817 -0.925851
v -0.354307 -0.855375 0.925851
v -0.354307 -0.855375 -0.925851
v -0.180624 -0.908060 0.925851
v -0.180624 -0.908060 -0.925851
v 0.000000 -0.925851 0.925851
v 0.000000 -0.925851 -0.925851
v 0.180624 -0.908060 0.925851
v 0.180624 -0.908060 -0.925851
v 0.354307 -0.855375 0.925851
v 0.354307 -0.855375 -0.925851
v 0.514375 -0.769817 0.925851
v 0.514375 -0.769817 -0.925851
v 0.654675 -0.654675 0.925851
v 0.654675 -0.654675 -0.925851
v 0.769817 -0.514375 0.925850
v 0.769817 -0.514375 -0.925851
v 0.855375 -0.354307 0.925850
v 0.855375 -0.354307 -0.925851
v 0.908060 -0.180624 0.925850
v 0.908060 -0.180624 -0.925851
v 0.925851 0.000000 0.925850
v 0.925850 0.000000 -0.925851
v 0.908060 0.180624 0.925850
v 0.908060 0.180624 -0.925851
v 0.855375 0.354307 0.925850
v 0.855375 0.354307 -0.925851
v 0.769817 0.514375 0.925850
v 0.769817 0.514375 -0.925851
v 0.654675 0.654675 0.925851
v 0.654675 0.654675 -0.925851
v 0.514375 0.769817 0.925851
v 0.514375 0.769817 -0.925851
v 0.354307 0.855375 0.925851
v 0.354307 0.855375 -0.925851
v 0.180624 0.908060 0.925851
v 0.180624 0.908060 -0.925851
v -0.000000 0.925851 0.925851
v -0.000000 0.925851 -0.925851
v -0.180624 0.908060 0.925851
v -0.180624 0.908060 -0.925851
v -0.354307 0.855375 0.925851
v -0.354307 0.855375 -0.925851
v -0.514375 0.769817 0.925851
v -0.514375 0.769817 -0.925851
v -0.654675 0.654675 0.925851
v -0.654675 0.654675 -0.925851
v -0.769817 0.514375 0.925851
v -0.769817 0.514375 -0.925850
v -0.855375 0.354307 0.925851
v -0.855375 0.354307 -0.925850
v -0.908060 0.180624 0.925851
v -0.908060 0.180624 -0.925850
v -0.615854 0.411500 -0.925851
v -0.523740 0.523740 -0.925851
v -0.684300 0.283446 -0.925850
v -0.740680 -0.000000 -0.925850
v -0.726448 0.144499 -0.925850
v -0.000000 0.740680 -0.925851
v 0.144499 0.726448 -0.925851
v 0.411500 0.615854 -0.925851
v 0.523740 0.523740 -0.925851
v 0.283446 0.684300 -0.925851
v 0.740680 0.000000 -0.925851
v 0.726448 -0.144499 -0.925851
v 0.615853 -0.411500 -0.925851
v 0.523740 -0.523740 -0.925851
v 0.684300 -0.283446 -0.925851
v -0.411500 -0.615854 -0.925851
v -0.523740 -0.523740 -0.925851
v 0.000000 -0.740680 -0.925851
v -0.144499 -0.726448 -0.925851
v -0.283446 -0.684300 -0.925851
v -0.144499 0.726448 -0.925851
v -0.411500 0.615853 -0.925851
v -0.283446 0.684300 -0.925851
v 0.615853 0.411500 -0.925851
v 0.684300 0.283446 -0.925851
v -0.684300 -0.283446 -0.925850
v -0.726448 -0.144499 -0.925850
v 0.726448 0.144499 -0.925851
v -0.615854 -0.411500 -0.925851
v 0.411500 -0.615853 -0.925851
v 0.144499 -0.726448 -0.925851
v 0.283446 -0.684300 -0.925851
v -0.726448 -0.144499 0.925851
v -0.684300 -0.283446 0.925851
v -0.523740 -0.523740 0.925851
v -0.411500 -0.615854 0.925851
v -0.615853 -0.411500 0.925851
v 0.523740 -0.523740 0.925851
v 0.615854 -0.411500 0.925851
v 0.283446 -0.684300 0.925851
v 0.144499 -0.726448 0.925851
v 0.411500 -0.615853 0.925851
v 0.411500 0.615854 0.925851
v 0.523740 0.523740 0.925851
v 0.615854 0.411500 0.925851
v 0.726448 0.144499 0.925850
v 0.684300 0.283446 0.925850
v -0.283446 0.684300 0.925851
v -0.144499 0.726448 0.925851
v -0.523740 0.523740 0.925851
v -0.615853 0.411500 0.925851
v -0.411500 0.615853 0.925851
v -0.726448 0.144499 0.925851
v -0.740680 -0.000000 0.925851
v -0.283446 -0.684300 0.925851
v 0.000000 -0.740680 0.925851
v -0.144499 -0.726448 0.925851
v 0.684300 -0.283446 0.925850
v -0.000000 0.740680 0.925851
v 0.283446 0.684300 0.925851
v 0.144499 0.726448 0.925851
v -0.684300 0.283446 0.925851
v 0.740680 0.000000 0.925850
v 0.726448 -0.144499 0.925850
vn -0.9952 -0.0980 -0.0000
vn -0.9569 -0.2903 -0.0000
vn -0.8819 -0.4714 -0.0000
vn -0.7730 -0.6344 -0.0000
vn -0.6344 -0.7730 -0.0000
vn -0.4714 -0.8819 -0.0000
vn -0.2903 -0.9569 -0.0000
vn -0.0980 -0.9952 -0.0000
vn 0.0980 -0.9952 -0.0000
vn 0.2903 -0.9569 -0.0000
vn 0.4714 -0.8819 -0.0000
vn 0.6344 -0.7730 -0.0000
vn 0.7730 -0.6344 -0.0000
vn 0.8819 -0.4714 -0.0000
vn 0.9569 -0.2903 -0.0000
vn 0.9952 -0.0980 -0.0000
vn 0.9952 0.0980 -0.0000
vn 0.9569 0.2903 -0.0000
vn 0.8819 0.4714 -0.0000
vn 0.7730 0.6344 -0.0000
vn 0.6344 0.7730 -0.0000
vn 0.4714 0.8819 -0.0000
vn 0.2903 0.9569 -0.0000
vn 0.0980 0.9952 -0.0000
vn -0.0980 0.9952 -0.0000
vn -0.2903 0.9569 -0.0000
vn -0.4714 0.8819 -0.0000
vn -0.6344 0.7730 -0.0000
vn -0.7730 0.6344 -0.0000
vn -0.8819 0.4714 -0.0000
vn -0.0000 -0.0000 -1.0000
vn -0.9569 0.2903 -0.0000
vn -0.9952 0.0980 -0.0000
vn -0.0000 -0.0000 1.0000
vt 0.465685 0.000184
vt 0.000183 0.029277
vt 0.000183 0.000184
vt 0.465685 0.058371
vt 0.000183 0.058371
vt 0.000183 0.087465
vt 0.465685 0.087465
vt 0.000183 0.116559
vt 0.465685 0.116559
vt 0.000183 0.145653
vt 0.465685 0.145653
vt 0.000183 0.174747
vt 0.465685 0.174747
vt 0.000183 0.203841
vt 0.465685 0.203841
vt 0.000183 0.232935
vt 0.465685 0.232934
vt 0.000183 0.262028
vt 0.465685 0.262028
vt 0.000183 0.291122
vt 0.465685 0.291122
vt 0.000183 0.320216
vt 0.465685 0.320216
vt 0.000184 0.349310
vt 0.465685 0.349310
vt 0.000184 0.378404
vt 0.465685 0.378404
vt 0.000184 0.407498
vt 0.465685 0.407498
vt 0.000184 0.436592
vt 0.465685 0.436592
vt 0.000184 0.465685
vt 0.465685 0.465685
vt 0.000184 0.494779
vt 0.465685 0.494779
vt 0.000184 0.523873
vt 0.465685 0.523873
vt 0.000184 0.552967
vt 0.465685 0.552967
vt 0.000184 0.582061
vt 0.465685 0.582061
vt 0.000184 0.611155
vt 0.465685 0.611155
vt 0.000184 0.640249
vt 0.465685 0.640249
vt 0.000184 0.669343
vt 0.465685 0.669343
vt 0.000184 0.698436
vt 0.465685 0.698436
vt 0.000184 0.727530
vt 0.465685 0.727530
vt 0.000184 0.756624
vt 0.465685 0.756624
vt 0.000184 0.785718
vt 0.465685 0.785718
vt 0.000184 0.814812
vt 0.465685 0.814812
vt 0.000184 0.843906
vt 0.465685 0.843906
vt 0.000184 0.873000
vt 0.799353 0.000184
vt 0.794972 0.044657
vt 0.759931 0.044657
vt 0.755550 0.444913
vt 0.759931 0.400440
vt 0.794972 0.400440
vt 0.465685 0.873000
vt 0.000184 0.902093
vt 0.465685 0.902093
vt 0.000184 0.931187
vt 0.635702 0.840368
vt 0.664052 0.805823
vt 0.639274 0.781045
vt 0.890851 0.529468
vt 0.915629 0.554246
vt 0.950174 0.525896
vt 0.554720 0.029277
vt 0.466052 0.000183
vt 0.466052 0.029277
vt 0.554720 0.058371
vt 0.466052 0.058371
vt 0.554719 0.087465
vt 0.466052 0.087465
vt 0.554719 0.116559
vt 0.466052 0.116559
vt 0.466053 0.145653
vt 0.554720 0.145653
vt 0.466053 0.174747
vt 0.554720 0.174747
vt 0.466053 0.203841
vt 0.554720 0.203841
vt 0.466053 0.232934
vt 0.554720 0.232934
vt 0.466053 0.262028
vt 0.554720 0.262028
vt 0.466053 0.291122
vt 0.554720 0.291122
vt 0.466052 0.320216
vt 0.554719 0.320216
vt 0.466052 0.349310
vt 0.554719 0.349310
vt 0.466053 0.378404
vt 0.554720 0.378404
vt 0.466053 0.407498
vt 0.554720 0.407498
vt 0.466053 0.436591
vt 0.554720 0.436591
vt 0.554720 0.465685
vt 0.466053 0.465685
vt 0.466053 0.494779
vt 0.554720 0.494779
vt 0.466053 0.523873
vt 0.554720 0.523873
vt 0.466052 0.552967
vt 0.554719 0.552967
vt 0.466052 0.582061
vt 0.554719 0.582061
vt 0.554720 0.611155
vt 0.466053 0.611155
vt 0.554720 0.640249
vt 0.466053 0.640249
vt 0.554720 0.669342
vt 0.466053 0.669342
vt 0.554720 0.698436
vt 0.466053 0.698436
vt 0.554720 0.727530
vt 0.466053 0.727530
vt 0.554720 0.756624
vt 0.466053 0.756624
vt 0.554720 0.785718
vt 0.466052 0.785718
vt 0.554720 0.814812
vt 0.466052 0.814812
vt 0.554720 0.843906
vt 0.466053 0.843906
vt 0.554720 0.872999
vt 0.466053 0.872999
vt 0.554720 0.902093
vt 0.466053 0.902093
vt 0.466053 0.931187
vt 0.465685 0.029277
vt 0.693188 0.064903
vt 0.672122 0.025491
vt 0.712590 0.008729
vt 0.755551 0.000184
vt 0.725562 0.051493
vt 0.842313 0.008729
vt 0.829341 0.051493
vt 0.882781 0.025491
vt 0.919201 0.049826
vt 0.861715 0.064903
vt 0.950174 0.080799
vt 0.890851 0.084371
vt 0.974509 0.117219
vt 0.935097 0.138285
vt 0.991271 0.157687
vt 0.948507 0.170659
vt 0.999817 0.200648
vt 0.999817 0.244450
vt 0.955344 0.205028
vt 0.991271 0.287410
vt 0.948507 0.274438
vt 0.974509 0.327878
vt 0.950174 0.364298
vt 0.935097 0.306812
vt 0.919201 0.395271
vt 0.915629 0.335948
vt 0.882781 0.419606
vt 0.861715 0.380194
vt 0.842313 0.436368
vt 0.829341 0.393604
vt 0.799353 0.444913
vt 0.712590 0.436368
vt 0.725562 0.393604
vt 0.672122 0.419606
vt 0.693188 0.380194
vt 0.635702 0.395271
vt 0.604729 0.364298
vt 0.664052 0.360726
vt 0.580394 0.327878
vt 0.619806 0.306812
vt 0.563632 0.287410
vt 0.606396 0.274438
vt 0.555087 0.244449
vt 0.599560 0.240069
vt 0.555087 0.200647
vt 0.563632 0.157687
vt 0.606396 0.170659
vt 0.580394 0.117219
vt 0.619806 0.138285
vt 0.604729 0.080799
vt 0.635702 0.049826
vt 0.639274 0.109149
vt 0.664052 0.084371
vt 0.915629 0.109149
vt 0.599560 0.205028
vt 0.955344 0.240069
vt 0.639274 0.335948
vt 0.890851 0.360726
vt 0.465685 0.931187
vt 0.725562 0.496590
vt 0.759931 0.489754
vt 0.755551 0.445281
vt 0.712590 0.453826
vt 0.672122 0.470588
vt 0.693188 0.510000
vt 0.635702 0.494923
vt 0.664052 0.529468
vt 0.604729 0.525896
vt 0.580394 0.562316
vt 0.619806 0.583382
vt 0.563632 0.602784
vt 0.606396 0.615756
vt 0.555087 0.645744
vt 0.555087 0.689547
vt 0.599560 0.650125
vt 0.563632 0.732507
vt 0.606396 0.719535
vt 0.580394 0.772975
vt 0.604729 0.809395
vt 0.619806 0.751909
vt 0.672122 0.864703
vt 0.693188 0.825291
vt 0.712590 0.881465
vt 0.725562 0.838701
vt 0.755551 0.890010
vt 0.799353 0.890010
vt 0.759931 0.845537
vt 0.842313 0.881465
vt 0.829341 0.838701
vt 0.882781 0.864703
vt 0.861715 0.825291
vt 0.919201 0.840368
vt 0.890851 0.805823
vt 0.950174 0.809395
vt 0.974509 0.772975
vt 0.935097 0.751909
vt 0.991271 0.732507
vt 0.948507 0.719535
vt 0.999816 0.689547
vt 0.999816 0.645744
vt 0.955343 0.685166
vt 0.955343 0.650124
vt 0.639274 0.554246
vt 0.915629 0.781045
vt 0.794972 0.845537
vt 0.599560 0.685166
vt 0.991271 0.602784
vt 0.974509 0.562316
vt 0.948507 0.615756
vt 0.935097 0.583382
vt 0.919201 0.494923
vt 0.882781 0.470588
vt 0.861715 0.510000
vt 0.842313 0.453826
vt 0.799353 0.445281
vt 0.829341 0.496590
vt 0.794972 0.489753
vt 0.554720 0.000183
vt 0.554720 0.931187
s 0
usemtl マテリアル
f 2/1/1 3/2/1 1/3/1
f 3/2/2 6/4/2 5/5/2
f 6/4/3 7/6/3 5/5/3
f 8/7/4 9/8/4 7/6/4
f 10/9/5 11/10/5 9/8/5
f 12/11/6 13/12/6 11/10/6
f 14/13/7 15/14/7 13/12/7
f 16/15/8 17/16/8 15/14/8
f 18/17/9 19/18/9 17/16/9
f 20/19/10 21/20/10 19/18/10
f 22/21/11 23/22/11 21/20/11
f 24/23/12 25/24/12 23/22/12
f 26/25/13 27/26/13 25/24/13
f 28/27/14 29/28/14 27/26/14
f 30/29/15 31/30/15 29/28/15
f 32/31/16 33/32/16 31/30/16
f 34/33/17 35/34/17 33/32/17
f 36/35/18 37/36/18 35/34/18
f 38/37/19 39/38/19 37/36/19
f 40/39/20 41/40/20 39/38/20
f 42/41/21 43/42/21 41/40/21
f 44/43/22 45/44/22 43/42/22
f 46/45/23 47/46/23 45/44/23
f 48/47/24 49/48/24 47/46/24
f 50/49/25 51/50/25 49/48/25
f 52/51/26 53/52/26 51/50/26
f 54/53/27 55/54/27 53/52/27
f 56/55/28 57/56/28 55/54/28
f 58/57/29 59/58/29 57/56/29
f 60/59/30 61/60/30 59/58/30
f 24/61/31 94/62/31 78/63/31
f 56/64/31 86/65/31 66/66/31
f 62/67/32 63/68/32 61/60/32
f 64/69/33 1/70/33 63/68/33
f 7/71/34 101/72/34 98/73/34
f 109/74/34 111/75/34 37/76/34
f 91/77/17 118/78/17 97/79/17
f 90/80/18 97/79/18 98/81/18
f 93/82/19 98/81/19 101/83/19
f 81/84/20 101/83/20 99/85/20
f 81/84/21 100/86/21 80/87/21
f 80/87/22 119/88/22 84/89/22
f 84/89/23 121/90/23 83/91/23
f 83/91/24 120/92/24 82/93/24
f 82/93/25 105/94/25 95/95/25
f 95/95/26 104/96/26 96/97/26
f 96/97/27 106/98/27 94/99/27
f 94/99/28 102/100/28 78/101/28
f 78/101/29 103/102/29 77/103/29
f 77/103/30 122/104/30 79/105/30
f 79/105/32 128/106/32 76/107/32
f 75/108/33 128/106/33 127/109/33
f 75/108/1 110/110/1 92/111/1
f 92/111/2 111/112/2 89/113/2
f 89/113/3 109/114/3 88/115/3
f 88/115/4 108/116/4 73/117/4
f 72/118/5 108/116/5 107/119/5
f 74/120/6 107/119/6 124/121/6
f 71/122/7 124/121/7 125/123/7
f 70/124/8 125/123/8 123/125/8
f 85/126/9 123/125/9 113/127/9
f 87/128/10 113/127/10 112/129/10
f 86/130/11 112/129/11 116/131/11
f 66/132/12 116/131/12 114/133/12
f 65/134/13 114/133/13 115/135/13
f 67/136/14 115/135/14 126/137/14
f 69/138/15 126/137/15 117/139/15
f 118/140/16 69/138/16 117/139/16
f 2/1/1 4/141/1 3/2/1
f 3/2/2 4/141/2 6/4/2
f 6/4/3 8/7/3 7/6/3
f 8/7/4 10/9/4 9/8/4
f 10/9/5 12/11/5 11/10/5
f 12/11/6 14/13/6 13/12/6
f 14/13/7 16/15/7 15/14/7
f 16/15/8 18/17/8 17/16/8
f 18/17/9 20/19/9 19/18/9
f 20/19/10 22/21/10 21/20/10
f 22/21/11 24/23/11 23/22/11
f 24/23/12 26/25/12 25/24/12
f 26/25/13 28/27/13 27/26/13
f 28/27/14 30/29/14 29/28/14
f 30/29/15 32/31/15 31/30/15
f 32/31/16 34/33/16 33/32/16
f 34/33/17 36/35/17 35/34/17
f 36/35/18 38/37/18 37/36/18
f 38/37/19 40/39/19 39/38/19
f 40/39/20 42/41/20 41/40/20
f 42/41/21 44/43/21 43/42/21
f 44/43/22 46/45/22 45/44/22
f 46/45/23 48/47/23 47/46/23
f 48/47/24 50/49/24 49/48/24
f 50/49/25 52/51/25 51/50/25
f 52/51/26 54/53/26 53/52/26
f 54/53/27 56/55/27 55/54/27
f 56/55/28 58/57/28 57/56/28
f 58/57/29 60/59/29 59/58/29
f 60/59/30 62/67/30 61/60/30
f 79/142/31 30/143/31 28/144/31
f 28/144/31 26/145/31 77/146/31
f 26/145/31 24/61/31 78/63/31
f 77/146/31 26/145/31 78/63/31
f 24/61/31 22/147/31 94/62/31
f 22/147/31 96/148/31 94/62/31
f 79/142/31 28/144/31 77/146/31
f 96/148/31 22/147/31 20/149/31
f 20/149/31 18/150/31 95/151/31
f 18/150/31 16/152/31 82/153/31
f 95/151/31 18/150/31 82/153/31
f 16/152/31 14/154/31 84/155/31
f 14/154/31 12/156/31 80/157/31
f 12/156/31 10/158/31 80/157/31
f 10/158/31 8/159/31 81/160/31
f 80/157/31 10/158/31 81/160/31
f 8/159/31 6/161/31 90/162/31
f 6/161/31 4/163/31 90/162/31
f 4/163/31 2/164/31 91/165/31
f 2/164/31 64/166/31 68/167/31
f 91/165/31 2/164/31 68/167/31
f 64/166/31 62/168/31 67/169/31
f 62/168/31 60/170/31 65/171/31
f 60/170/31 58/172/31 66/66/31
f 58/172/31 56/64/31 66/66/31
f 56/64/31 54/173/31 87/174/31
f 54/173/31 52/175/31 85/176/31
f 52/175/31 50/177/31 85/176/31
f 50/177/31 48/178/31 70/179/31
f 85/176/31 50/177/31 70/179/31
f 48/178/31 46/180/31 74/181/31
f 46/180/31 44/182/31 72/183/31
f 44/182/31 42/184/31 73/185/31
f 42/184/31 40/186/31 73/185/31
f 40/186/31 38/187/31 89/188/31
f 38/187/31 36/189/31 92/190/31
f 36/189/31 34/191/31 92/190/31
f 34/191/31 32/192/31 75/193/31
f 92/190/31 34/191/31 75/193/31
f 32/192/31 30/143/31 79/142/31
f 32/192/31 79/142/31 76/194/31
f 38/187/31 92/190/31 89/188/31
f 46/180/31 72/183/31 74/181/31
f 54/173/31 85/176/31 87/174/31
f 62/168/31 65/171/31 67/169/31
f 90/162/31 4/163/31 91/165/31
f 14/154/31 80/157/31 84/155/31
f 96/148/31 20/149/31 95/151/31
f 32/192/31 76/194/31 75/193/31
f 83/195/31 82/153/31 16/152/31
f 84/155/31 83/195/31 16/152/31
f 40/186/31 89/188/31 88/196/31
f 40/186/31 88/196/31 73/185/31
f 44/182/31 73/185/31 72/183/31
f 93/197/31 81/160/31 8/159/31
f 90/162/31 93/197/31 8/159/31
f 48/178/31 74/181/31 71/198/31
f 48/178/31 71/198/31 70/179/31
f 69/199/31 68/167/31 64/166/31
f 67/169/31 69/199/31 64/166/31
f 56/64/31 87/174/31 86/65/31
f 66/66/31 65/171/31 60/170/31
f 62/67/32 64/69/32 63/68/32
f 64/69/33 2/200/33 1/70/33
f 123/201/34 125/202/34 47/203/34
f 47/203/34 49/204/34 123/201/34
f 49/204/34 51/205/34 113/206/34
f 51/205/34 53/207/34 112/208/34
f 53/207/34 55/209/34 112/208/34
f 55/209/34 57/210/34 114/211/34
f 57/210/34 59/212/34 115/213/34
f 59/212/34 61/214/34 115/213/34
f 61/214/34 63/215/34 126/216/34
f 115/213/34 61/214/34 126/216/34
f 63/215/34 1/217/34 118/218/34
f 1/217/34 3/219/34 118/218/34
f 3/219/34 5/220/34 97/221/34
f 5/220/34 7/71/34 98/73/34
f 97/221/34 5/220/34 98/73/34
f 7/71/34 9/222/34 99/223/34
f 9/222/34 11/224/34 100/225/34
f 11/224/34 13/226/34 100/225/34
f 13/226/34 15/227/34 119/228/34
f 100/225/34 13/226/34 119/228/34
f 15/227/34 17/229/34 120/230/34
f 17/229/34 19/231/34 105/232/34
f 19/231/34 21/233/34 104/234/34
f 21/233/34 23/235/34 104/234/34
f 23/235/34 25/236/34 102/237/34
f 25/236/34 27/238/34 103/239/34
f 27/238/34 29/240/34 103/239/34
f 29/240/34 31/241/34 122/242/34
f 103/239/34 29/240/34 122/242/34
f 31/241/34 128/243/34 122/242/34
f 25/236/34 103/239/34 102/237/34
f 17/229/34 105/232/34 120/230/34
f 9/222/34 100/225/34 99/223/34
f 118/218/34 3/219/34 97/221/34
f 57/210/34 115/213/34 114/211/34
f 49/204/34 113/206/34 123/201/34
f 112/208/34 113/206/34 51/205/34
f 116/244/34 112/208/34 55/209/34
f 23/235/34 102/237/34 106/245/34
f 23/235/34 106/245/34 104/234/34
f 114/211/34 116/244/34 55/209/34
f 19/231/34 104/234/34 105/232/34
f 15/227/34 120/230/34 121/246/34
f 117/247/34 126/216/34 63/215/34
f 118/218/34 117/247/34 63/215/34
f 15/227/34 121/246/34 119/228/34
f 7/71/34 99/223/34 101/72/34
f 128/243/34 31/241/34 33/248/34
f 33/248/34 35/249/34 127/250/34
f 35/249/34 37/76/34 110/251/34
f 127/250/34 35/249/34 110/251/34
f 37/76/34 39/252/34 109/74/34
f 39/252/34 41/253/34 108/254/34
f 41/253/34 43/255/34 108/254/34
f 43/255/34 45/256/34 107/257/34
f 108/254/34 43/255/34 107/257/34
f 45/256/34 47/203/34 124/258/34
f 47/203/34 125/202/34 124/258/34
f 39/252/34 108/254/34 109/74/34
f 128/243/34 33/248/34 127/250/34
f 45/256/34 124/258/34 107/257/34
f 111/75/34 110/251/34 37/76/34
f 91/77/17 68/259/17 118/78/17
f 90/80/18 91/77/18 97/79/18
f 93/82/19 90/80/19 98/81/19
f 81/84/20 93/82/20 101/83/20
f 81/84/21 99/85/21 100/86/21
f 80/87/22 100/86/22 119/88/22
f 84/89/23 119/88/23 121/90/23
f 83/91/24 121/90/24 120/92/24
f 82/93/25 120/92/25 105/94/25
f 95/95/26 105/94/26 104/96/26
f 96/97/27 104/96/27 106/98/27
f 94/99/28 106/98/28 102/100/28
f 78/101/29 102/100/29 103/102/29
f 77/103/30 103/102/30 122/104/30
f 79/105/32 122/104/32 128/106/32
f 75/108/33 76/107/33 128/106/33
f 75/108/1 127/109/1 110/110/1
f 92/111/2 110/110/2 111/112/2
f 89/113/3 111/112/3 109/114/3
f 88/115/4 109/114/4 108/116/4
f 72/118/5 73/117/5 108/116/5
f 74/120/6 72/118/6 107/119/6
f 71/122/7 74/120/7 124/121/7
f 70/124/8 71/122/8 125/123/8
f 85/126/9 70/124/9 123/125/9
f 87/128/10 85/126/10 113/127/10
f 86/130/11 87/128/11 112/129/11
f 66/132/12 86/130/12 116/131/12
f 65/134/13 66/132/13 114/133/13
f 67/136/14 65/134/14 115/135/14
f 69/138/15 67/136/15 126/137/15
f 118/140/16 68/260/16 69/138/16
