# Blender 4.1.1
# www.blender.org
mtllib Slot.mtl
o 立方体
v 9.809462 -14.563357 -2.649548
v 9.809462 14.563357 -2.649548
v 9.809462 -14.563357 2.649546
v 9.809462 14.563357 2.649546
v -9.809462 -14.563357 -2.649546
v -9.809462 14.563357 -2.649546
v -9.809462 -14.563357 2.649548
v -9.809462 14.563357 2.649548
v 6.923588 -4.168648 2.649546
v 6.923588 11.850976 2.649546
v -6.923588 11.850976 2.649548
v -6.923588 -4.168648 2.649548
v 6.923588 11.850976 -2.649548
v -6.923588 -4.168648 -2.649546
v -6.923588 11.850976 -2.649546
v 6.923588 -4.168648 -2.649548
v 7.893435 -4.541640 -1.961732
v 9.809462 0.000000 -2.649548
v 9.809462 0.000000 2.649546
v 9.809462 7.281679 -2.649548
v 9.809462 7.281679 2.649546
v 9.809462 3.640839 -2.649548
v 9.809462 3.640839 2.649546
v -9.809462 0.000000 -2.649546
v -9.809462 0.000000 2.649548
v -9.809462 7.281679 -2.649546
v -9.809462 7.281679 2.649548
v -9.809462 3.640839 -2.649546
v -9.809462 3.640839 2.649548
v 9.809462 12.018876 -2.649548
v 9.809462 4.737197 -2.649548
v 9.809462 1.096358 -2.649548
v 11.462614 14.563357 -2.649548
v 11.462614 14.563357 2.649546
v 11.462614 7.281679 2.649546
v 11.462614 3.640839 -2.649548
v 11.462614 3.640839 2.649546
v 10.804221 7.281679 -6.332469
v 10.804221 14.563357 -6.332469
v 10.804221 3.640839 -6.332469
v 12.457374 7.281679 -6.332469
v 12.457374 14.563357 -6.332469
v 12.457375 14.563357 -1.033375
v 12.457375 7.281679 -1.033375
v 12.457374 3.640839 -6.332469
v 12.457375 3.640839 -1.033375
v -11.514750 14.563357 -2.649546
v -11.514750 7.281679 2.649548
v -11.514750 14.563357 2.649548
v -11.514750 3.640839 -2.649546
v -11.514750 3.640839 2.649548
v -10.793357 7.281679 -6.292235
v -10.793357 14.563357 -6.292235
v -10.793357 3.640839 -6.292235
v -12.498645 3.640839 -6.292235
v -12.498645 7.281679 -6.292235
v -12.498645 14.563357 -6.292235
v -12.498644 7.281679 -0.993141
v -12.498644 14.563357 -0.993141
v -12.498644 3.640839 -0.993141
v 9.797562 -14.526216 -4.837817
v 9.797562 -14.526216 -2.544598
v 9.797562 -4.177941 -2.544598
v -9.797562 -14.526216 -4.837815
v -9.797562 -14.526216 -2.544596
v -9.797562 -4.177941 -2.544596
v 9.797562 -9.352078 -4.837817
v 9.797562 -9.352078 -2.544598
v -9.797562 -9.352078 -2.544596
v -9.797562 -9.352078 -4.837815
v 9.797562 -6.765009 -4.837817
v 9.797562 -6.765009 -2.544598
v -9.797562 -6.765009 -2.544596
v -9.797562 -6.765009 -4.837815
v 9.797562 -5.471475 -4.837817
v 9.797562 -5.471475 -2.544598
v -9.797562 -5.471475 -2.544596
v -9.797562 -5.471475 -4.837815
v 9.797562 -5.471475 -4.837817
v 9.797562 -4.177941 -2.626194
v -9.797562 -4.177941 -2.626192
v -9.797562 -5.471475 -4.837815
v -6.710571 -4.577449 -3.270378
v -6.710571 -4.388248 -3.382721
v -6.834422 -4.583677 -3.280866
v -6.834422 -4.394475 -3.393209
v -6.953513 -4.602121 -3.311928
v -6.953513 -4.412920 -3.424272
v -7.063268 -4.632073 -3.362371
v -7.063268 -4.442872 -3.474715
v -7.159469 -4.672382 -3.430256
v -7.159469 -4.483180 -3.542600
v -7.238419 -4.721498 -3.512974
v -7.238419 -4.532295 -3.625318
v -7.297085 -4.777534 -3.607346
v -7.297085 -4.588331 -3.719690
v -7.333210 -4.838336 -3.709746
v -7.333210 -4.649134 -3.822090
v -7.345408 -4.901569 -3.816238
v -7.345408 -4.712367 -3.928582
v -7.333210 -4.964802 -3.922730
v -7.333210 -4.775599 -4.035075
v -7.297085 -5.025604 -4.025131
v -7.297085 -4.836402 -4.137475
v -7.238419 -5.081640 -4.119503
v -7.238419 -4.892438 -4.231846
v -7.159469 -5.130756 -4.202220
v -7.159469 -4.941554 -4.314565
v -7.063268 -5.171064 -4.270105
v -7.063268 -4.981862 -4.382450
v -6.953513 -5.201016 -4.320549
v -6.953513 -5.011814 -4.432893
v -6.834422 -5.219460 -4.351611
v -6.834422 -5.030259 -4.463955
v -6.710571 -5.225688 -4.362100
v -6.710571 -5.036487 -4.474443
v -6.586721 -5.219460 -4.351611
v -6.586721 -5.030259 -4.463955
v -6.467630 -5.201016 -4.320549
v -6.467630 -5.011814 -4.432893
v -6.357875 -5.171064 -4.270105
v -6.357875 -4.981862 -4.382450
v -6.261674 -5.130756 -4.202220
v -6.261674 -4.941554 -4.314565
v -6.182724 -5.081640 -4.119503
v -6.182724 -4.892438 -4.231846
v -6.124058 -5.025604 -4.025131
v -6.124058 -4.836402 -4.137475
v -6.087933 -4.964802 -3.922730
v -6.087933 -4.775599 -4.035075
v -6.075734 -4.901569 -3.816239
v -6.075734 -4.712367 -3.928582
v -6.087933 -4.838336 -3.709746
v -6.087933 -4.649134 -3.822090
v -6.124058 -4.777534 -3.607347
v -6.124058 -4.588331 -3.719690
v -6.182724 -4.721498 -3.512974
v -6.182724 -4.532295 -3.625318
v -6.261674 -4.672382 -3.430256
v -6.261674 -4.483180 -3.542600
v -6.357875 -4.632073 -3.362371
v -6.357875 -4.442872 -3.474715
v -6.467630 -4.602121 -3.311928
v -6.467630 -4.412920 -3.424272
v -6.586721 -4.583677 -3.280866
v -6.586721 -4.394475 -3.393209
v -6.056548 -4.398924 -3.500594
v -6.056548 -4.645439 -3.340304
v -6.056548 -5.035289 -4.479280
v -6.056548 -5.281804 -4.318991
v -3.985705 -4.398924 -3.500594
v -3.985705 -4.645439 -3.340304
v -3.985705 -5.035289 -4.479280
v -3.985705 -5.281804 -4.318991
v 9.214264 0.610006 -2.614466
v 9.214264 1.144536 -2.614466
v 9.214264 0.610006 2.614465
v 9.214264 1.144536 2.614465
v -9.214264 0.610006 -2.614465
v -9.214264 1.144536 -2.614465
v -9.214264 0.610006 2.614466
v -9.214264 1.144536 2.614466
vn -0.0000 -1.0000 -0.0000
vn -0.0000 -0.0000 1.0000
vn -0.0000 -0.0000 -1.0000
vn -0.0000 1.0000 -0.0000
vn -1.0000 -0.0000 -0.0000
vn 1.0000 -0.0000 -0.0000
vn -0.9654 -0.0000 -0.2608
vn 0.9654 -0.0000 0.2608
vn -0.9654 -0.0000 0.2608
vn 0.9654 -0.0000 -0.2608
vn -0.0000 0.8632 -0.5049
vn -0.0980 0.5081 0.8557
vn -0.2903 0.4886 0.8228
vn -0.4714 0.4503 0.7583
vn -0.6344 0.3947 0.6647
vn -0.7730 0.3239 0.5455
vn -0.8819 0.2407 0.4053
vn -0.9569 0.1482 0.2496
vn -0.9952 0.0500 0.0843
vn -0.9952 -0.0500 -0.0843
vn -0.9569 -0.1482 -0.2496
vn -0.8819 -0.2407 -0.4053
vn -0.7730 -0.3239 -0.5455
vn -0.6344 -0.3947 -0.6647
vn -0.4714 -0.4503 -0.7583
vn -0.2903 -0.4886 -0.8228
vn -0.0980 -0.5081 -0.8557
vn 0.0980 -0.5081 -0.8557
vn 0.2903 -0.4886 -0.8228
vn 0.4714 -0.4503 -0.7583
vn 0.6344 -0.3947 -0.6647
vn 0.7730 -0.3239 -0.5455
vn 0.8819 -0.2407 -0.4053
vn 0.9569 -0.1482 -0.2496
vn 0.9952 -0.0500 -0.0843
vn 0.9952 0.0500 0.0843
vn 0.9569 0.1482 0.2496
vn 0.8819 0.2407 0.4053
vn 0.7730 0.3239 0.5455
vn 0.6344 0.3947 0.6647
vn 0.4714 0.4503 0.7583
vn -0.0000 0.8598 -0.5106
vn 0.2903 0.4886 0.8228
vn 0.0980 0.5081 0.8557
vn -0.0000 -0.8598 0.5106
vn -0.0000 0.5451 0.8384
vn -0.0000 -0.5451 -0.8384
vn -0.0000 -0.8384 0.5451
vn -0.0000 0.8384 -0.5451
vn -0.0000 0.8599 -0.5105
vn -0.0000 0.8598 -0.5105
vn -0.0000 -0.8599 0.5105
vn -0.0000 -0.8598 0.5105
vt 0.088563 0.301866
vt 0.063594 0.331542
vt 0.052316 0.304579
vt 0.067924 0.195109
vt 0.093848 0.116687
vt 0.068356 0.178181
vt 0.094260 0.948580
vt 0.082955 0.462202
vt 0.089350 0.439429
vt 0.125310 0.758172
vt 0.130402 0.768110
vt 0.085347 0.178484
vt 0.051813 0.475644
vt 0.089726 0.329140
vt 0.088745 0.845432
vt 0.064256 0.457659
vt 0.091327 0.834870
vt 0.085947 0.051421
vt 0.067511 0.159445
vt 0.101295 0.864193
vt 0.094400 0.329855
vt 0.083016 0.242840
vt 0.055360 0.380691
vt 0.081065 0.421477
vt 0.051421 0.241749
vt 0.140894 0.471719
vt 0.090254 0.829203
vt 0.074947 0.798513
vt 0.074769 0.795861
vt 0.143193 0.598814
vt 0.306072 0.881525
vt 0.321700 0.881652
vt 0.357971 0.881314
vt 0.425499 0.881863
vt 0.085102 0.332927
vt 0.104374 0.351961
vt 0.101300 0.355171
vt 0.078807 0.414324
vt 0.094896 0.400059
vt 0.069706 0.431500
vt 0.061690 0.371592
vt 0.081575 0.409471
vt 0.095273 0.396172
vt 0.111220 0.368624
vt 0.166960 0.357264
vt 0.079451 0.367611
vt 0.103348 0.369863
vt 0.079635 0.342824
vt 0.100257 0.883930
vt 0.094225 0.758154
vt 0.052648 0.753705
vt 0.051421 0.612292
vt 0.067666 0.758982
vt 0.079727 0.683476
vt 0.116653 0.676209
vt 0.057812 0.732467
vt 0.065638 0.758685
vt 0.090075 0.833712
vt 0.059608 0.736146
vt 0.089551 0.703333
vt 0.590128 0.381753
vt 0.467994 0.252096
vt 0.468536 0.251590
vt 0.594665 0.131782
vt 0.460529 0.242987
vt 0.586751 0.123466
vt 0.601484 0.109429
vt 0.595190 0.131282
vt 0.406221 0.185411
vt 0.275521 0.076536
vt 0.289857 0.062918
vt 0.444763 0.257504
vt 0.422217 0.231919
vt 0.269801 0.307852
vt 0.391885 0.199029
vt 0.436914 0.218170
vt 0.563012 0.098557
vt 0.531351 0.065465
vt 0.577708 0.084520
vt 0.546021 0.051421
vt 0.437307 0.248803
vt 0.298599 0.340173
vt 0.452523 0.234663
vt 0.578838 0.115153
vt 0.593562 0.101119
vt 0.444747 0.257487
vt 0.312941 0.356397
vt 0.335832 0.382259
vt 0.458970 0.273605
vt 0.321517 0.366035
vt 0.738878 0.197681
vt 0.737799 0.195773
vt 0.738878 0.195773
vt 0.737799 0.197681
vt 0.736719 0.195773
vt 0.736719 0.197681
vt 0.735640 0.195773
vt 0.735640 0.197681
vt 0.734561 0.195773
vt 0.734561 0.197681
vt 0.733482 0.195773
vt 0.733482 0.197681
vt 0.732403 0.195773
vt 0.732403 0.197681
vt 0.731324 0.195773
vt 0.731324 0.197681
vt 0.730245 0.195773
vt 0.730245 0.197681
vt 0.729166 0.195773
vt 0.729166 0.197681
vt 0.728087 0.195773
vt 0.728087 0.197681
vt 0.727008 0.195773
vt 0.727008 0.197681
vt 0.725929 0.195773
vt 0.725929 0.197681
vt 0.724850 0.195773
vt 0.724850 0.197681
vt 0.723770 0.195773
vt 0.723770 0.197681
vt 0.722691 0.195773
vt 0.722691 0.197681
vt 0.721612 0.195773
vt 0.720533 0.197681
vt 0.720533 0.195773
vt 0.719454 0.197681
vt 0.719454 0.195773
vt 0.718375 0.197681
vt 0.718375 0.195773
vt 0.717296 0.197681
vt 0.717296 0.195773
vt 0.716217 0.197681
vt 0.716217 0.195773
vt 0.715138 0.197681
vt 0.715138 0.195773
vt 0.714059 0.197681
vt 0.714059 0.195773
vt 0.712980 0.197681
vt 0.712980 0.195773
vt 0.711901 0.197681
vt 0.711901 0.195773
vt 0.710822 0.197681
vt 0.710822 0.195773
vt 0.709743 0.197681
vt 0.709743 0.195773
vt 0.708663 0.197681
vt 0.708663 0.195773
vt 0.707584 0.197681
vt 0.707584 0.195773
vt 0.706505 0.197681
vt 0.706505 0.195773
vt 0.715303 0.305460
vt 0.715303 0.306539
vt 0.710365 0.311478
vt 0.705426 0.197681
vt 0.705426 0.195773
vt 0.704347 0.197681
vt 0.704347 0.195773
vt 0.704347 0.419257
vt 0.704558 0.418199
vt 0.708227 0.414529
vt 0.706150 0.092932
vt 0.711505 0.083971
vt 0.713307 0.085774
vt 0.726004 0.073077
vt 0.724201 0.071275
vt 0.733161 0.065920
vt 0.731359 0.064117
vt 0.745858 0.053223
vt 0.745858 0.078617
vt 0.738701 0.085774
vt 0.711505 0.058578
vt 0.273078 0.485100
vt 0.301861 0.520437
vt 0.269801 0.488377
vt 0.305138 0.517160
vt 0.414849 0.633425
vt 0.418126 0.630148
vt 0.446908 0.665485
vt 0.450186 0.662207
vt 0.559897 0.778473
vt 0.333920 0.778473
vt 0.301861 0.746413
vt 0.531115 0.517160
vt 0.076373 0.380889
vt 0.269801 0.881863
vt 0.461770 0.881525
vt 0.589586 0.382259
vt 0.601506 0.109435
vt 0.321626 0.366158
vt 0.721612 0.197681
vt 0.715093 0.307597
vt 0.714680 0.308594
vt 0.712420 0.310854
vt 0.714080 0.309492
vt 0.713317 0.310255
vt 0.711423 0.311267
vt 0.709286 0.311478
vt 0.708227 0.311267
vt 0.715093 0.304402
vt 0.707230 0.310854
vt 0.714080 0.302508
vt 0.706333 0.310255
vt 0.713317 0.301745
vt 0.705570 0.309492
vt 0.712420 0.301145
vt 0.704971 0.308594
vt 0.711423 0.300732
vt 0.704558 0.307597
vt 0.704347 0.306539
vt 0.710365 0.300522
vt 0.704347 0.305460
vt 0.709286 0.300522
vt 0.704558 0.304402
vt 0.708227 0.300732
vt 0.704971 0.303405
vt 0.707230 0.301145
vt 0.705570 0.302508
vt 0.706333 0.301745
vt 0.714680 0.303405
vt 0.704971 0.417202
vt 0.705570 0.416305
vt 0.706333 0.415542
vt 0.707230 0.414942
vt 0.709286 0.414319
vt 0.704347 0.420336
vt 0.710365 0.414319
vt 0.704558 0.421394
vt 0.711423 0.414529
vt 0.712420 0.414942
vt 0.704970 0.422391
vt 0.713317 0.415542
vt 0.706333 0.424052
vt 0.714080 0.416305
vt 0.707230 0.424651
vt 0.714680 0.417202
vt 0.715093 0.418199
vt 0.708227 0.425064
vt 0.715303 0.419257
vt 0.710365 0.425275
vt 0.715303 0.420336
vt 0.711423 0.425064
vt 0.715093 0.421395
vt 0.714680 0.422391
vt 0.712420 0.424651
vt 0.714080 0.423289
vt 0.713317 0.424052
vt 0.709285 0.425275
vt 0.705570 0.423289
vt 0.704347 0.091129
vt 0.744055 0.051421
vt 0.718662 0.051421
vt 0.563174 0.775196
vt 0.563174 0.549219
s 0
usemtl マテリアル
f 22/1/1 37/2/1 23/3/1
f 7/4/2 3/5/2 9/6/2
f 8/7/2 10/8/2 4/9/2
f 8/7/2 48/10/2 27/11/2
f 5/12/3 24/13/3 14/14/3
f 6/15/3 13/16/3 15/17/3
f 7/4/1 1/18/1 3/5/1
f 4/9/4 6/15/4 8/7/4
f 9/6/5 13/16/5 16/19/5
f 14/14/6 11/20/6 12/21/6
f 12/21/4 16/19/4 14/14/4
f 11/20/1 13/16/1 10/8/1
f 18/22/6 3/5/6 1/18/6
f 21/23/2 34/24/2 4/9/2
f 22/1/6 19/25/6 18/22/6
f 25/26/5 5/12/5 7/4/5
f 47/27/4 53/28/4 57/29/4
f 29/30/5 24/13/5 25/26/5
f 22/31/4 31/32/4 20/33/4
f 20/33/4 30/34/4 31/32/4
f 36/35/1 40/36/1 45/37/1
f 33/38/4 39/39/4 2/40/4
f 4/9/4 33/38/4 2/40/4
f 23/3/2 35/41/2 21/23/2
f 33/38/4 43/42/4 42/43/4
f 2/40/7 38/44/7 20/45/7
f 42/43/6 44/46/6 41/47/6
f 41/47/6 46/48/6 45/37/6
f 39/39/3 41/47/3 38/44/3
f 38/44/3 45/37/3 40/36/3
f 36/35/1 46/48/1 37/2/1
f 37/2/8 44/46/8 35/41/8
f 20/45/7 40/36/7 22/1/7
f 35/41/8 43/42/8 34/24/8
f 49/49/9 58/50/9 48/10/9
f 26/51/10 53/28/10 6/15/10
f 28/52/10 52/53/10 26/51/10
f 29/30/1 50/54/1 28/52/1
f 27/11/2 51/55/2 29/30/2
f 6/15/4 49/49/4 8/7/4
f 54/56/3 56/57/3 52/53/3
f 59/58/5 56/57/5 58/50/5
f 58/50/5 55/59/5 60/60/5
f 52/53/3 57/29/3 53/28/3
f 50/54/1 60/60/1 55/59/1
f 48/10/9 60/60/9 51/55/9
f 47/27/4 59/58/4 49/49/4
f 50/54/1 54/56/1 28/52/1
f 63/61/4 81/62/4 66/63/4
f 63/64/2 77/65/2 76/66/2
f 75/67/6 80/68/6 76/66/6
f 65/69/1 61/70/1 62/71/1
f 77/65/5 81/62/5 82/72/5
f 70/73/3 61/74/3 64/75/3
f 69/76/5 64/75/5 65/69/5
f 68/77/2 65/69/2 62/78/2
f 67/79/6 62/78/6 61/80/6
f 74/81/3 67/82/3 70/73/3
f 73/83/5 70/73/5 69/76/5
f 72/84/2 69/76/2 68/77/2
f 71/85/6 68/77/6 67/79/6
f 78/86/3 71/87/3 74/81/3
f 77/65/5 74/81/5 73/83/5
f 76/66/2 73/83/2 72/84/2
f 75/67/6 72/84/6 71/85/6
f 80/88/11 82/72/11 81/89/11
f 82/72/4 75/90/4 78/86/4
f 84/91/12 85/92/12 83/93/12
f 86/94/13 87/95/13 85/92/13
f 88/96/14 89/97/14 87/95/14
f 90/98/15 91/99/15 89/97/15
f 92/100/16 93/101/16 91/99/16
f 94/102/17 95/103/17 93/101/17
f 96/104/18 97/105/18 95/103/18
f 98/106/19 99/107/19 97/105/19
f 100/108/20 101/109/20 99/107/20
f 102/110/21 103/111/21 101/109/21
f 104/112/22 105/113/22 103/111/22
f 106/114/23 107/115/23 105/113/23
f 108/116/24 109/117/24 107/115/24
f 110/118/25 111/119/25 109/117/25
f 112/120/26 113/121/26 111/119/26
f 114/122/27 115/123/27 113/121/27
f 115/123/28 118/124/28 117/125/28
f 117/125/29 120/126/29 119/127/29
f 119/127/30 122/128/30 121/129/30
f 121/129/31 124/130/31 123/131/31
f 123/131/32 126/132/32 125/133/32
f 125/133/33 128/134/33 127/135/33
f 127/135/34 130/136/34 129/137/34
f 129/137/35 132/138/35 131/139/35
f 131/139/36 134/140/36 133/141/36
f 133/141/37 136/142/37 135/143/37
f 135/143/38 138/144/38 137/145/38
f 137/145/39 140/146/39 139/147/39
f 139/147/40 142/148/40 141/149/40
f 141/149/41 144/150/41 143/151/41
f 92/152/42 90/153/42 140/154/42
f 143/151/43 146/155/43 145/156/43
f 145/156/44 84/157/44 83/158/44
f 141/159/45 143/160/45 89/161/45
f 147/162/6 150/163/6 149/164/6
f 150/163/46 153/165/46 149/164/46
f 154/166/5 151/167/5 153/165/5
f 152/168/47 147/169/47 151/167/47
f 153/165/48 147/170/48 149/171/48
f 150/172/49 152/168/49 154/166/49
f 156/173/6 157/174/6 155/175/6
f 158/176/2 161/177/2 157/174/2
f 162/178/5 159/179/5 161/177/5
f 160/180/3 155/181/3 159/179/3
f 161/177/1 155/182/1 157/183/1
f 158/184/4 160/180/4 162/178/4
f 22/1/1 36/35/1 37/2/1
f 12/21/2 11/20/2 29/30/2
f 11/20/2 8/7/2 27/11/2
f 11/20/2 27/11/2 29/30/2
f 4/9/2 10/8/2 21/23/2
f 10/8/2 9/6/2 23/3/2
f 21/23/2 10/8/2 23/3/2
f 12/21/2 29/30/2 25/26/2
f 12/21/2 25/26/2 7/4/2
f 19/25/2 23/3/2 9/6/2
f 9/6/2 12/21/2 7/4/2
f 3/5/2 19/25/2 9/6/2
f 8/7/2 11/20/2 10/8/2
f 8/7/2 49/49/2 48/10/2
f 13/16/3 2/40/3 20/185/3
f 13/16/3 20/185/3 22/1/3
f 16/19/3 13/16/3 22/1/3
f 16/19/3 22/1/3 18/22/3
f 6/15/3 15/17/3 26/51/3
f 15/17/3 14/14/3 28/52/3
f 26/51/3 15/17/3 28/52/3
f 16/19/3 18/22/3 1/18/3
f 14/14/3 16/19/3 1/18/3
f 14/14/3 1/18/3 5/12/3
f 24/13/3 28/52/3 14/14/3
f 6/15/3 2/40/3 13/16/3
f 7/4/1 5/12/1 1/18/1
f 4/9/4 2/40/4 6/15/4
f 9/6/5 10/8/5 13/16/5
f 14/14/6 15/17/6 11/20/6
f 12/21/4 9/6/4 16/19/4
f 11/20/1 15/17/1 13/16/1
f 18/22/6 19/25/6 3/5/6
f 21/23/2 35/41/2 34/24/2
f 22/1/6 23/3/6 19/25/6
f 25/26/5 24/13/5 5/12/5
f 47/27/4 6/15/4 53/28/4
f 29/30/5 28/52/5 24/13/5
f 22/31/4 32/186/4 31/32/4
f 20/33/3 2/187/3 30/34/3
f 36/35/1 22/1/1 40/36/1
f 33/38/4 42/43/4 39/39/4
f 4/9/4 34/24/4 33/38/4
f 23/3/2 37/2/2 35/41/2
f 33/38/4 34/24/4 43/42/4
f 2/40/7 39/39/7 38/44/7
f 42/43/6 43/42/6 44/46/6
f 41/47/6 44/46/6 46/48/6
f 39/39/3 42/43/3 41/47/3
f 38/44/3 41/47/3 45/37/3
f 36/35/1 45/37/1 46/48/1
f 37/2/8 46/48/8 44/46/8
f 20/45/7 38/44/7 40/36/7
f 35/41/8 44/46/8 43/42/8
f 49/49/9 59/58/9 58/50/9
f 26/51/10 52/53/10 53/28/10
f 28/52/10 54/56/10 52/53/10
f 29/30/1 51/55/1 50/54/1
f 27/11/2 48/10/2 51/55/2
f 6/15/4 47/27/4 49/49/4
f 54/56/3 55/59/3 56/57/3
f 59/58/5 57/29/5 56/57/5
f 58/50/5 56/57/5 55/59/5
f 52/53/3 56/57/3 57/29/3
f 50/54/1 51/55/1 60/60/1
f 48/10/9 58/50/9 60/60/9
f 47/27/4 57/29/4 59/58/4
f 50/54/1 55/59/1 54/56/1
f 63/61/4 80/188/4 81/62/4
f 63/64/2 66/63/2 77/65/2
f 80/68/6 63/64/6 76/66/6
f 75/67/4 79/189/4 80/68/4
f 65/69/1 64/75/1 61/70/1
f 77/65/5 66/63/5 81/62/5
f 82/72/4 78/86/4 77/65/4
f 70/73/3 67/82/3 61/74/3
f 69/76/5 70/73/5 64/75/5
f 68/77/2 69/76/2 65/69/2
f 67/79/6 68/77/6 62/78/6
f 74/81/3 71/87/3 67/82/3
f 73/83/5 74/81/5 70/73/5
f 72/84/2 73/83/2 69/76/2
f 71/85/6 72/84/6 68/77/6
f 78/86/3 75/90/3 71/87/3
f 77/65/5 78/86/5 74/81/5
f 76/66/2 77/65/2 73/83/2
f 75/67/6 76/66/6 72/84/6
f 80/88/11 79/190/11 82/72/11
f 82/72/4 79/190/4 75/90/4
f 84/91/12 86/94/12 85/92/12
f 86/94/13 88/96/13 87/95/13
f 88/96/14 90/98/14 89/97/14
f 90/98/15 92/100/15 91/99/15
f 92/100/16 94/102/16 93/101/16
f 94/102/17 96/104/17 95/103/17
f 96/104/18 98/106/18 97/105/18
f 98/106/19 100/108/19 99/107/19
f 100/108/20 102/110/20 101/109/20
f 102/110/21 104/112/21 103/111/21
f 104/112/22 106/114/22 105/113/22
f 106/114/23 108/116/23 107/115/23
f 108/116/24 110/118/24 109/117/24
f 110/118/25 112/120/25 111/119/25
f 112/120/26 114/122/26 113/121/26
f 114/122/27 116/191/27 115/123/27
f 115/123/28 116/191/28 118/124/28
f 117/125/29 118/124/29 120/126/29
f 119/127/30 120/126/30 122/128/30
f 121/129/31 122/128/31 124/130/31
f 123/131/32 124/130/32 126/132/32
f 125/133/33 126/132/33 128/134/33
f 127/135/34 128/134/34 130/136/34
f 129/137/35 130/136/35 132/138/35
f 131/139/36 132/138/36 134/140/36
f 133/141/37 134/140/37 136/142/37
f 135/143/38 136/142/38 138/144/38
f 137/145/39 138/144/39 140/146/39
f 139/147/40 140/146/40 142/148/40
f 141/149/41 142/148/41 144/150/41
f 88/192/42 86/193/42 144/194/42
f 86/193/50 84/195/50 146/196/50
f 144/194/42 86/193/42 146/196/42
f 144/194/51 142/197/51 88/192/51
f 142/197/42 140/154/42 90/153/42
f 88/192/42 142/197/42 90/153/42
f 140/154/42 138/198/42 92/152/42
f 138/198/42 136/199/42 94/200/42
f 92/152/51 138/198/51 94/200/51
f 136/199/42 134/201/42 98/202/42
f 134/201/42 132/203/42 100/204/42
f 132/203/42 130/205/42 102/206/42
f 130/205/42 128/207/42 104/208/42
f 128/207/42 126/209/42 104/208/42
f 126/209/51 124/210/51 106/211/51
f 104/208/42 126/209/42 106/211/42
f 124/210/51 122/212/51 108/213/51
f 122/212/42 120/214/42 110/215/42
f 108/213/42 122/212/42 110/215/42
f 120/214/42 118/216/42 112/217/42
f 118/216/50 116/218/50 114/219/50
f 112/217/42 118/216/42 114/219/42
f 112/217/42 110/215/42 120/214/42
f 108/213/50 106/211/50 124/210/50
f 104/208/42 102/206/42 130/205/42
f 102/206/42 100/204/42 132/203/42
f 100/204/42 98/202/42 134/201/42
f 98/202/42 96/220/42 136/199/42
f 96/220/42 94/200/42 136/199/42
f 143/151/43 144/150/43 146/155/43
f 145/156/44 146/155/44 84/157/44
f 145/221/45 83/222/45 85/223/45
f 85/223/52 87/224/52 145/221/52
f 87/224/45 89/161/45 143/160/45
f 145/221/45 87/224/45 143/160/45
f 89/161/45 91/225/45 139/226/45
f 91/225/45 93/227/45 137/228/45
f 93/227/45 95/229/45 137/228/45
f 95/229/45 97/230/45 135/231/45
f 137/228/45 95/229/45 135/231/45
f 97/230/45 99/232/45 131/233/45
f 99/232/45 101/234/45 129/235/45
f 101/234/53 103/236/53 129/235/53
f 103/236/45 105/237/45 127/238/45
f 129/235/45 103/236/45 127/238/45
f 105/237/45 107/239/45 123/240/45
f 107/239/45 109/241/45 121/242/45
f 109/241/45 111/243/45 121/242/45
f 111/243/53 113/244/53 119/245/53
f 121/242/53 111/243/53 119/245/53
f 113/244/52 115/246/52 117/247/52
f 117/247/45 119/245/45 113/244/45
f 121/242/45 123/240/45 107/239/45
f 123/240/45 125/248/45 105/237/45
f 125/248/45 127/238/45 105/237/45
f 129/235/45 131/233/45 99/232/45
f 131/233/45 133/249/45 97/230/45
f 133/249/45 135/231/45 97/230/45
f 137/228/45 139/226/45 91/225/45
f 139/226/45 141/159/45 89/161/45
f 147/162/6 148/250/6 150/163/6
f 150/163/46 154/166/46 153/165/46
f 154/166/5 152/168/5 151/167/5
f 152/168/47 148/251/47 147/169/47
f 153/165/48 151/167/48 147/170/48
f 150/172/49 148/252/49 152/168/49
f 156/173/6 158/176/6 157/174/6
f 158/176/2 162/178/2 161/177/2
f 162/178/5 160/180/5 159/179/5
f 160/180/3 156/253/3 155/181/3
f 161/177/1 159/179/1 155/182/1
f 158/184/4 156/254/4 160/180/4
l 16 17
